HIERARCHY
ROOT hip
{
  OFFSET -37.7743 85.2796 -21.0587
  CHANNELS 6 Xposition Yposition Zposition Zrotation Xrotation Yrotation
  JOINT abdomen
  {
    OFFSET 0 20.6881 -0.73152
    CHANNELS 3 Zrotation Xrotation Yrotation
    JOINT chest
    {
      OFFSET 0 11.7043 -0.48768
      CHANNELS 3 Zrotation Xrotation Yrotation
      JOINT neck
      {
        OFFSET 0 22.1894 -2.19456
        CHANNELS 3 Zrotation Xrotation Yrotation
        JOINT head
        {
          OFFSET -0.24384 7.07133 1.2192
          CHANNELS 3 Zrotation Xrotation Yrotation
          JOINT leftEye
          {
            OFFSET 4.14528 8.04674 8.04672
            CHANNELS 3 Zrotation Xrotation Yrotation
            End Site
            {
              OFFSET 1 0 0
            }
          }
          JOINT rightEye
          {
            OFFSET -3.6576 8.04674 8.04672
            CHANNELS 3 Zrotation Xrotation Yrotation
            End Site
            {
              OFFSET 1 0 0
            }
          }
        }
      }
      JOINT rCollar
      {
        OFFSET -2.68224 19.2634 -4.8768
        CHANNELS 3 Zrotation Xrotation Yrotation
        JOINT rShldr
        {
          OFFSET -8.77824 -1.95073 1.46304
          CHANNELS 3 Zrotation Xrotation Yrotation
          JOINT rForeArm
          {
            OFFSET -28.1742 -1.7115 0.48768
            CHANNELS 3 Zrotation Xrotation Yrotation
            JOINT rHand
            {
              OFFSET -22.5879 0.773209 7.07136
              CHANNELS 3 Zrotation Xrotation Yrotation
              JOINT rThumb1
              {
                OFFSET -1.2192 -0.487915 3.41376
                CHANNELS 3 Zrotation Xrotation Yrotation
                JOINT rThumb2
                {
                  OFFSET -3.37035 -0.52449 3.41376
                  CHANNELS 3 Zrotation Xrotation Yrotation
                  End Site
                  {
                    OFFSET -1.78271 -1.18214 1.43049
                  }
                }
              }
              JOINT rIndex1
              {
                OFFSET -7.75947 0.938293 5.60832
                CHANNELS 3 Zrotation Xrotation Yrotation
                JOINT rIndex2
                {
                  OFFSET -2.54057 -0.884171 1.56538
                  CHANNELS 3 Zrotation Xrotation Yrotation
                  End Site
                  {
                    OFFSET -1.62519 -0.234802 1.16502
                  }
                }
              }
              JOINT rMid1
              {
                OFFSET -8.24714 1.18213 3.41376
                CHANNELS 3 Zrotation Xrotation Yrotation
                JOINT rMid2
                {
                  OFFSET -3.10165 -0.590103 1.0647
                  CHANNELS 3 Zrotation Xrotation Yrotation
                  End Site
                  {
                    OFFSET -2.48547 -0.328903 0.83742
                  }
                }
              }
              JOINT rRing1
              {
                OFFSET -8.82822 0.546677 1.51678
                CHANNELS 3 Zrotation Xrotation Yrotation
                JOINT rRing2
                {
                  OFFSET -2.60934 -0.819778 -0.0198488
                  CHANNELS 3 Zrotation Xrotation Yrotation
                  End Site
                  {
                    OFFSET -2.33842 -0.294052 0.168128
                  }
                }
              }
              JOINT rPinky1
              {
                OFFSET -8.27202 -0.0477905 -0.4584
                CHANNELS 3 Zrotation Xrotation Yrotation
                JOINT rPinky2
                {
                  OFFSET -1.82734 -0.647385 -0.700984
                  CHANNELS 3 Zrotation Xrotation Yrotation
                  End Site
                  {
                    OFFSET -1.69225 -0.51767 -0.607171
                  }
                }
              }
            }
          }
        }
      }
      JOINT lCollar
      {
        OFFSET 2.68224 19.2634 -4.8768
        CHANNELS 3 Zrotation Xrotation Yrotation
        JOINT lShldr
        {
          OFFSET 8.77824 -1.95073 1.46304
          CHANNELS 3 Zrotation Xrotation Yrotation
          JOINT lForeArm
          {
            OFFSET 28.1742 -1.7115 0.48768
            CHANNELS 3 Zrotation Xrotation Yrotation
            JOINT lHand
            {
              OFFSET 22.5879 0.773209 7.07136
              CHANNELS 3 Zrotation Xrotation Yrotation
              JOINT lThumb1
              {
                OFFSET 1.2192 -0.487915 3.41376
                CHANNELS 3 Zrotation Xrotation Yrotation
                JOINT lThumb2
                {
                  OFFSET 3.37035 -0.52449 3.41376
                  CHANNELS 3 Zrotation Xrotation Yrotation
                  End Site
                  {
                    OFFSET 1.78271 -1.18214 1.43049
                  }
                }
              }
              JOINT lIndex1
              {
                OFFSET 7.75947 0.938293 5.60832
                CHANNELS 3 Zrotation Xrotation Yrotation
                JOINT lIndex2
                {
                  OFFSET 2.54057 -0.884171 1.56538
                  CHANNELS 3 Zrotation Xrotation Yrotation
                  End Site
                  {
                    OFFSET 1.62519 -0.234802 1.16502
                  }
                }
              }
              JOINT lMid1
              {
                OFFSET 8.24714 1.18213 3.41376
                CHANNELS 3 Zrotation Xrotation Yrotation
                JOINT lMid2
                {
                  OFFSET 3.10165 -0.590103 1.0647
                  CHANNELS 3 Zrotation Xrotation Yrotation
                  End Site
                  {
                    OFFSET 2.48547 -0.328903 0.83742
                  }
                }
              }
              JOINT lRing1
              {
                OFFSET 8.82822 0.546677 1.51678
                CHANNELS 3 Zrotation Xrotation Yrotation
                JOINT lRing2
                {
                  OFFSET 2.60934 -0.819778 -0.0198488
                  CHANNELS 3 Zrotation Xrotation Yrotation
                  End Site
                  {
                    OFFSET 2.33842 -0.294052 0.168128
                  }
                }
              }
              JOINT lPinky1
              {
                OFFSET 8.27202 -0.0477905 -0.4584
                CHANNELS 3 Zrotation Xrotation Yrotation
                JOINT lPinky2
                {
                  OFFSET 1.82734 -0.647385 -0.700984
                  CHANNELS 3 Zrotation Xrotation Yrotation
                  End Site
                  {
                    OFFSET 1.69225 -0.51767 -0.607171
                  }
                }
              }
            }
          }
        }
      }
    }
  }
  JOINT rButtock
  {
    OFFSET -8.77824 4.35084 1.2192
    CHANNELS 3 Zrotation Xrotation Yrotation
    JOINT rThigh
    {
      OFFSET 0 -1.70687 -2.19456
      CHANNELS 3 Zrotation Xrotation Yrotation
      JOINT rShin
      {
        OFFSET 0 -36.8199 0.73152
        CHANNELS 3 Zrotation Xrotation Yrotation
        JOINT rFoot
        {
          OFFSET 0.73152 -45.1104 -5.12064
          CHANNELS 3 Zrotation Xrotation Yrotation
          End Site
          {
            OFFSET -1.1221 -3.69964 12.103
          }
        }
      }
    }
  }
  JOINT lButtock
  {
    OFFSET 8.77824 4.35084 1.2192
    CHANNELS 3 Zrotation Xrotation Yrotation
    JOINT lThigh
    {
      OFFSET 0 -1.70687 -2.19456
      CHANNELS 3 Zrotation Xrotation Yrotation
      JOINT lShin
      {
        OFFSET 0 -36.8199 0.73152
        CHANNELS 3 Zrotation Xrotation Yrotation
        JOINT lFoot
        {
          OFFSET -0.73152 -45.1104 -5.12064
          CHANNELS 3 Zrotation Xrotation Yrotation
          End Site
          {
            OFFSET 1.1221 -3.69964 12.103
          }
        }
      }
    }
  }
}
MOTION
Frames:	7
Frame Time:	0.00833333
-43.8401 84.1002 4.28599 1.15516 0.00311873 -0.0216561 -1.51928 -0.00282929 -0.0413939 -0.418704 0.00102648 -0.0725121 -9.23333e-015 0 1.98785e-016 -2.83144e-014 3.18055e-015 4.69008e-016 -0 0 0 -0 0 0 -4.52421e-015 -6.67792e-017 1.98785e-016 -9.70369e-014 -1.59649e-015 1.98785e-015 -1.70771e-012 4.59193e-013 6.04305e-014 -1.94561e-011 -7.5819e-013 2.83069e-013 -4.59126e-011 -6.46569e-013 7.69694e-013 -7.92916e-011 -1.11319e-012 1.33504e-012 -4.59073e-011 -6.43267e-013 7.66514e-013 7.73091 5.47488 0.417314 -4.59117e-011 -6.46647e-013 7.79236e-013 2.90554 0.965183 0.102902 -4.59007e-011 -6.4615e-013 7.71285e-013 10.2786 0.731801 0.0259123 -4.59123e-011 -6.48038e-013 7.82416e-013 2.22167 -0.733487 -0.20892 -4.62019e-015 -6.67792e-017 -9.93923e-017 -1.00617e-013 -1.78906e-015 5.96354e-016 -1.69444e-012 -5.57392e-013 1.59028e-014 -1.94774e-011 2.55413e-013 3.49861e-013 -4.59275e-011 -6.49549e-013 7.69694e-013 -7.93079e-011 -1.12274e-012 1.33663e-012 -4.59364e-011 -6.46448e-013 7.79236e-013 -7.73091 5.47488 -0.417314 -4.59277e-011 -6.49032e-013 7.72875e-013 -2.90554 0.965183 -0.102902 -4.59373e-011 -6.48933e-013 7.70489e-013 -10.2786 0.731801 -0.0259123 -4.59244e-011 -6.49628e-013 7.63333e-013 -2.22167 -0.733487 0.20892 -2.03217e-016 0 -3.88251e-019 -0.640405 -1.92323 -0.00643854 -0.00925564 -2.07856 -0.0764367 -0.512294 3.99733 0.140333 2.03217e-016 0 3.88251e-019 -1.6696 -6.49784 0.154689 -0.0023115 6.20803 -0.0679916 0.533904 0.285474 -0.0665514 
-43.6237 81.7881 -1.57903 -2.49925 12.3218 -25.9821 -0.591818 2.41775 1.0206 1.09211 0.157117 0.285903 0.334276 0.275981 -0.589353 -1.78954 5.48294 -0.234549 -0 0 0 -0 0 0 -1.69768e-014 2.74481e-013 -3.81651e-014 24.6084 8.26299 8.23643 -2.91173 -1.1389 4.7282 0.21487 -10.3139 -1.36616 -4.67664e-010 -6.44404e-010 -1.21824e-009 -7.79198e-010 -1.09724e-009 -2.10923e-009 -4.6766e-010 -6.44402e-010 -1.21824e-009 7.73091 5.47488 0.417314 -4.67663e-010 -6.44404e-010 -1.21823e-009 2.90554 0.965183 0.102902 -4.67654e-010 -6.44403e-010 -1.21824e-009 10.2786 0.731801 0.0259123 -4.67666e-010 -6.44404e-010 -1.21823e-009 2.22167 -0.733487 -0.20892 -1.71003e-014 2.74478e-013 -3.83918e-014 -25.0143 20.8288 -9.06604 3.8184 -1.66215 -6.04061 -0.284843 -11.8875 1.54376 -8.67209e-010 -5.47546e-010 9.88019e-010 -1.52192e-009 -9.08012e-010 1.67262e-009 -8.67217e-010 -5.4754e-010 9.8803e-010 -7.73091 5.47488 -0.417314 -8.67209e-010 -5.47546e-010 9.88019e-010 -2.90554 0.965183 -0.102902 -8.67218e-010 -5.47547e-010 9.88022e-010 -10.2786 0.731801 -0.0259123 -8.67206e-010 -5.47547e-010 9.88018e-010 -2.22167 -0.733487 0.20892 -2.03217e-016 0 -3.88251e-019 -3.60875 -11.1661 -0.770193 -0.00686179 7.08915 0.0507941 -0.655314 1.63148 -2.58097 2.03217e-016 0 3.88251e-019 2.33547 -15.4495 1.51226 -0.0147613 14.3095 -0.212999 0.257444 -2.94038 -1.20363 
-43.6269 81.7881 -1.58079 4.2649 16.8213 -55.5301 0.290066 4.97305 2.1491 2.68788 0.320609 0.664711 0.694233 0.56961 -1.21207 -3.63136 11.2742 -0.489865 -0 0 0 -0 0 0 -3.21388e-014 5.66212e-013 -8.11414e-014 47.9809 16.4229 17.4997 -5.78599 -2.3169 9.7322 -0.127922 -21.1976 -2.96585 -9.15759e-010 -1.35808e-009 -2.57714e-009 -1.52131e-009 -2.31227e-009 -4.46142e-009 -9.15756e-010 -1.35808e-009 -2.57716e-009 7.73091 5.47488 0.417314 -9.15759e-010 -1.35808e-009 -2.57714e-009 2.90554 0.965183 0.102902 -9.15752e-010 -1.35808e-009 -2.57714e-009 10.2786 0.731801 0.0259123 -9.15764e-010 -1.35808e-009 -2.57713e-009 2.22167 -0.733487 -0.20892 -3.22944e-014 5.66205e-013 -8.12905e-014 -42.366 40.9107 -23.3323 7.47723 -3.35838 -12.4443 0.172462 -24.4202 3.41282 -1.75988e-009 -1.14744e-009 2.0734e-009 -3.09023e-009 -1.90266e-009 3.51036e-009 -1.75989e-009 -1.14743e-009 2.07341e-009 -7.73091 5.47488 -0.417314 -1.75988e-009 -1.14744e-009 2.0734e-009 -2.90554 0.965183 -0.102902 -1.75989e-009 -1.14744e-009 2.0734e-009 -10.2786 0.731801 -0.0259123 -1.75988e-009 -1.14744e-009 2.0734e-009 -2.22167 -0.733487 0.20892 -2.03217e-016 0 -3.88251e-019 -7.03156 -20.9321 -1.65799 -0.0499801 16.7791 0.192627 -1.05013 -0.860562 -5.45451 2.03217e-016 0 3.88251e-019 7.07799 -24.8898 3.12224 0.0205287 22.8744 -0.383274 -0.174771 -6.38252 -2.40799 
-43.6302 81.7873 -1.58558 12.4906 9.14011 -79.3213 0.992223 7.24909 3.16719 4.10787 0.469232 1.00276 1.01986 0.827592 -1.76822 -5.22907 16.4477 -0.730316 -0 0 0 -0 0 0 -4.1882e-014 8.23576e-013 -1.14893e-013 66.4549 22.6652 26.6511 -8.17687 -3.32376 14.2062 -1.0361 -30.8654 -4.69893 -1.31117e-009 -1.93192e-009 -3.65625e-009 -2.17901e-009 -3.28949e-009 -6.33035e-009 -1.31116e-009 -1.93192e-009 -3.65627e-009 7.73091 5.47488 0.417314 -1.31117e-009 -1.93192e-009 -3.65625e-009 2.90554 0.965183 0.102902 -1.31116e-009 -1.93192e-009 -3.65625e-009 10.2786 0.731801 0.0259123 -1.31117e-009 -1.93192e-009 -3.65624e-009 2.22167 -0.733487 -0.20892 -4.20606e-014 8.23566e-013 -1.14977e-013 -44.4318 53.7372 -46.4995 10.4202 -4.76518 -18.1792 1.43791 -35.5465 5.57291 -2.50977e-009 -1.64134e-009 2.96252e-009 -4.40715e-009 -2.72179e-009 5.0152e-009 -2.50978e-009 -1.64133e-009 2.96253e-009 -7.73091 5.47488 -0.417314 -2.50977e-009 -1.64134e-009 2.96251e-009 -2.90554 0.965183 -0.102902 -2.50978e-009 -1.64134e-009 2.96252e-009 -10.2786 0.731801 -0.0259123 -2.50977e-009 -1.64134e-009 2.96253e-009 -2.22167 -0.733487 0.20892 -2.03217e-016 0 -3.88251e-019 -10.3811 -29.6296 -2.59325 -0.133317 25.4242 0.336588 -1.61376 -3.06498 -8.0313 2.03217e-016 0 3.88251e-019 11.845 -33.2734 4.86433 0.102337 30.5114 -0.561778 -0.683772 -9.37661 -3.52012 
-43.6233 81.787 -1.58768 15.9789 -2.00079 -91.6895 1.43651 8.83632 3.88776 5.09242 0.580743 1.2389 1.24746 0.996793 -2.15783 -6.31661 20.0781 -0.908359 -0 0 0 -0 0 0 -3.80784e-014 9.95021e-013 -1.25582e-013 78.0132 26.144 33.6391 -9.75064 -3.99116 17.3346 -2.11221 -37.5649 -6.20544 -1.57485e-009 -2.15617e-009 -4.03586e-009 -2.62565e-009 -3.67218e-009 -6.99114e-009 -1.57485e-009 -2.15617e-009 -4.03588e-009 7.73091 5.47488 0.417314 -1.57485e-009 -2.15617e-009 -4.03587e-009 2.90554 0.965183 0.102902 -1.57485e-009 -2.15617e-009 -4.03586e-009 10.2786 0.731801 0.0259123 -1.57486e-009 -2.15617e-009 -4.03585e-009 2.22167 -0.733487 -0.20892 -3.82574e-014 9.95012e-013 -1.25632e-013 -37.391 56.6521 -69.5614 12.2978 -5.65963 -22.1876 3.01785 -43.2628 7.60061 -2.90271e-009 -1.87027e-009 3.36098e-009 -5.09562e-009 -3.10211e-009 5.68782e-009 -2.90272e-009 -1.87026e-009 3.36099e-009 -7.73091 5.47488 -0.417314 -2.90271e-009 -1.87027e-009 3.36097e-009 -2.90554 0.965183 -0.102902 -2.90272e-009 -1.87027e-009 3.36098e-009 -10.2786 0.731801 -0.0259123 -2.90271e-009 -1.87027e-009 3.36099e-009 -2.22167 -0.733487 0.20892 -2.03217e-016 0 -3.88251e-019 -12.9268 -35.6765 -3.37445 -0.221925 31.4573 0.454163 -2.1271 -4.59074 -9.84715 2.03217e-016 0 3.88251e-019 15.5585 -39.0857 6.3778 0.194473 35.8295 -0.709362 -1.10667 -11.2651 -4.3595 
-43.6151 81.7878 -1.59222 16.6826 -7.29001 -95.515 1.60412 9.46711 4.17229 5.47169 0.642059 1.331 1.32925 1.03943 -2.31249 -6.73855 21.5563 -0.975909 -0 0 0 -0 0 0 -1.4215e-014 1.03326e-012 -1.01171e-013 82.2692 27.2286 36.5197 -10.3417 -4.24025 18.5527 -2.65372 -40.1344 -6.88205 -1.66567e-009 -1.86879e-009 -3.39114e-009 -2.79764e-009 -3.18468e-009 -5.88332e-009 -1.66567e-009 -1.86879e-009 -3.39116e-009 7.73091 5.47488 0.417314 -1.66567e-009 -1.86879e-009 -3.39115e-009 2.90554 0.965183 0.102902 -1.66566e-009 -1.86879e-009 -3.39114e-009 10.2786 0.731801 0.0259123 -1.66568e-009 -1.86879e-009 -3.39114e-009 2.22167 -0.733487 -0.20892 -1.43519e-014 1.03326e-012 -1.0123e-013 -34.1441 55.9954 -78.7005 12.9879 -5.98129 -23.7436 3.86589 -46.3134 8.59073 -2.78371e-009 -1.71741e-009 3.05251e-009 -4.88283e-009 -2.8504e-009 5.1614e-009 -2.78372e-009 -1.7174e-009 3.05253e-009 -7.73091 5.47488 -0.417314 -2.78371e-009 -1.71741e-009 3.05251e-009 -2.90554 0.965183 -0.102902 -2.78372e-009 -1.71741e-009 3.05252e-009 -10.2786 0.731801 -0.0259123 -2.78371e-009 -1.71741e-009 3.05252e-009 -2.22167 -0.733487 0.20892 -2.03217e-016 0 -3.88251e-019 -13.9842 -38.0277 -3.70499 -0.265019 33.8344 0.505933 -2.36099 -5.19844 -10.5788 2.03217e-016 0 3.88251e-019 17.1192 -41.3556 7.11656 0.239976 37.9047 -0.773985 -1.28102 -11.5598 -4.80397 
-43.6124 81.7882 -1.60403 16.5912 -6.64852 -95.1662 1.5947 9.41663 4.14108 5.41898 0.667454 1.32027 1.30591 0.991851 -2.2994 -6.69735 21.4972 -0.958878 -0 0 0 -0 0 0 2.39248e-014 9.76966e-013 -5.18207e-014 81.8198 27.0479 36.2291 -10.2692 -4.20838 18.4034 -2.57811 -39.7775 -6.78619 -1.63246e-009 -1.21702e-009 -2.0169e-009 -2.77246e-009 -2.07743e-009 -3.51589e-009 -1.63245e-009 -1.21702e-009 -2.01692e-009 7.73091 5.47488 0.417314 -1.63246e-009 -1.21702e-009 -2.01691e-009 2.90554 0.965183 0.102902 -1.63245e-009 -1.21702e-009 -2.0169e-009 10.2786 0.731801 0.0259123 -1.63246e-009 -1.21702e-009 -2.0169e-009 2.22167 -0.733487 -0.20892 2.38597e-014 9.76971e-013 -5.19201e-014 -34.428 56.0015 -77.7496 12.8967 -5.93511 -23.5396 3.78534 -46.0696 8.50291 -2.29963e-009 -1.29235e-009 2.24006e-009 -4.0273e-009 -2.14809e-009 3.78013e-009 -2.29963e-009 -1.29234e-009 2.24007e-009 -7.73091 5.47488 -0.417314 -2.29963e-009 -1.29235e-009 2.24005e-009 -2.90554 0.965183 -0.102902 -2.29964e-009 -1.29235e-009 2.24006e-009 -10.2786 0.731801 -0.0259123 -2.29963e-009 -1.29235e-009 2.24006e-009 -2.22167 -0.733487 0.20892 -2.03217e-016 0 -3.88251e-019 -13.8719 -37.745 -3.63525 -0.260396 33.6001 0.500598 -2.34597 -5.16081 -10.5289 2.03217e-016 0 3.88251e-019 16.9325 -41.1158 7.14129 0.23446 37.6634 -0.766269 -1.24548 -10.7223 -4.95794 
